# xmcd CD database file generated by Grip 3.3.1
# 
# Track frame offsets:
#       150
#       12643
#       25538
#       36387
#       48607
#       62566
#       74848
#       87964
#       99526
#       111363
#       122701
#       132076
#       145866
#       157252
#       169375
#       181886
#       194010
#       206202
#       222104
#       234175
#       246661
#       258733
#       270961
#       283522
#       295776
#       308364
# 
# Disc length: 4283 seconds
# 
# Revision: 3
# Processed by: cddbd v1.5.2PL0 Copyright (c) Steve Scherf et al.
# Submitted via: Grip 3.3.1
# 
DISCID=9310b91a
DTITLE=Various Artist - Nothing But The Blues
DYEAR=1900
DGENRE=Blues
TTITLE0=Sonny Terry - Train Whistle Blues
TTITLE1=Blind Boy Fuller and Sonny Terry - Shake Down Blues
TTITLE2=Blind Boy Fuller and Sonny Terry - Mistreater, You're Going To Be S
TTITLE2=orry
TTITLE3=Sonny Terry - New Love Blues
TTITLE4=Sonny Terry - Sweet Woman
TTITLE5=Blind Boy Fuller and Sonny Terry - I Want Some Of Your Pie
TTITLE6=Blind Boy Fuller and Sonny Terry - I'm Stranger Here
TTITLE7=Blind Boy Fuller and Sonny Terry - Bye Bye Baby Blues
TTITLE8=Blind Boy Fuller and Sonny Terry - Stop Jivin' Me Mama
TTITLE9=Blind Boy Fuller and Sonny Terry - Mean And No Good Woman
TTITLE10=Sonny Terry - Fox Chase
TTITLE11=Blind Boy Fuller and Sonny Terry - I Don't Care How Long
TTITLE12=Sonny Terry - Harmonica And Washboard Breakdown
TTITLE13=Blind Boy Fuller and Sonny Terry - Pistol Slapper Blues
TTITLE14=Blind Boy Fuller and Sonny Terry - Blues And Worried Man
TTITLE15=Blind Boy Fuller and Sonny Terry - Twelve Gates To The City
TTITLE16=Sonny Terry - Harmonica Blues
TTITLE17=Sonny Terry - Lonesome Train
TTITLE18=Blind Boy Fuller and Sonny Terry - Big House Bound
TTITLE19=Blind Boy Fuller and Sonny Terry - Precious Lord
TTITLE20=Blind Boy Fuller and Sonny Terry - You Got To Have Your Dollar
TTITLE21=Blind Boy Fuller and Sonny Terry - Don't Want No Skinny Woman
TTITLE22=Blind Boy Fuller and Sonny Terry - Somebody's Been Talkin'
TTITLE23=Blind Boy Fuller and Sonny Terry - Bus Rider Blues
TTITLE24=Sonny Terry - Harmonica Stomp
TTITLE25=Sonny Terry - Blowing The Blues
EXTD=
EXTT0=
EXTT1=
EXTT2=
EXTT3=
EXTT4=
EXTT5=
EXTT6=
EXTT7=
EXTT8=
EXTT9=
EXTT10=
EXTT11=
EXTT12=
EXTT13=
EXTT14=
EXTT15=
EXTT16=
EXTT17=
EXTT18=
EXTT19=
EXTT20=
EXTT21=
EXTT22=
EXTT23=
EXTT24=
EXTT25=
PLAYORDER=
